<?xml version="1.0" standalone="no"?>
<!DOCTYPE svg PUBLIC "-//W3C//DTD SVG 20010904//EN"
 "http://www.w3.org/TR/2001/REC-SVG-20010904/DTD/svg10.dtd">
<svg version="1.0" xmlns="http://www.w3.org/2000/svg"
 width="300.000000pt" height="300.000000pt" viewBox="0 0 300.000000 300.000000"
 preserveAspectRatio="xMidYMid meet">
<metadata>
Created by potrace 1.11, written by Peter Selinger 2001-2013
</metadata>
<g transform="translate(0.000000,300.000000) scale(0.100000,-0.100000)"
fill="#000000" stroke="none">
<path d="M0 1500 l0 -1500 1500 0 1500 0 0 1500 0 1500 -1500 0 -1500 0 0
-1500z m1750 1436 c143 -25 259 -63 395 -130 297 -146 525 -373 670 -669 108
-220 146 -388 146 -642 0 -254 -38 -422 -145 -640 -209 -427 -595 -716 -1071
-802 -121 -22 -361 -22 -480 0 -187 34 -385 108 -530 200 -345 216 -579 557
-666 967 -31 148 -32 401 -1 547 65 306 193 545 407 759 238 239 534 382 875
424 97 11 292 5 400 -14z"/>
<path d="M1313 2505 c-341 -62 -629 -288 -768 -603 -62 -142 -80 -234 -80
-417 1 -142 3 -171 27 -257 55 -196 143 -343 291 -484 199 -189 436 -284 709
-284 689 0 1188 679 981 1335 -155 492 -659 801 -1160 710z m-466 -1337 c-1
-200 -2 -39 -2 357 0 396 1 559 2 363 2 -196 2 -520 0 -720z m1293 362 l0
-700 -635 0 -635 0 0 700 0 700 635 0 635 0 0 -700z m-1643 88 c-3 -8 -6 -5
-6 6 -1 11 2 17 5 13 3 -3 4 -12 1 -19z m-10 -160 c-2 -18 -4 -6 -4 27 0 33 2
48 4 33 2 -15 2 -42 0 -60z m10 -115 c-3 -10 -5 -4 -5 12 0 17 2 24 5 18 2 -7
2 -21 0 -30z m10 -55 c-3 -8 -6 -5 -6 6 -1 11 2 17 5 13 3 -3 4 -12 1 -19z
m123 -308 c6 -11 8 -20 6 -20 -3 0 -10 9 -16 20 -6 11 -8 20 -6 20 3 0 10 -9
16 -20z m66 -97 c15 -20 23 -33 16 -29 -13 8 -56 66 -49 66 3 0 17 -17 33 -37z
m89 -103 c33 -33 57 -60 54 -60 -2 0 -31 27 -64 60 -33 33 -57 60 -54 60 2 0
31 -27 64 -60z m90 -80 c10 -11 16 -20 13 -20 -3 0 -13 9 -23 20 -10 11 -16
20 -13 20 3 0 13 -9 23 -20z m125 -86 c0 -2 -9 0 -20 6 -11 6 -20 13 -20 16 0
2 9 0 20 -6 11 -6 20 -13 20 -16z m120 -54 c8 -5 11 -10 5 -10 -5 0 -17 5 -25
10 -8 5 -10 10 -5 10 6 0 17 -5 25 -10z m187 -56 c-3 -3 -12 -4 -19 -1 -8 3
-5 6 6 6 11 1 17 -2 13 -5z m56 -11 c-7 -2 -19 -2 -25 0 -7 3 -2 5 12 5 14 0
19 -2 13 -5z m165 -10 c-21 -2 -55 -2 -75 0 -21 2 -4 4 37 4 41 0 58 -2 38 -4z"/>
<path d="M910 1530 l0 -650 595 0 595 0 0 650 0 650 -595 0 -595 0 0 -650z
m1168 3 l-3 -638 -575 0 -575 0 -3 625 c-1 344 0 631 3 638 3 9 129 12 580 12
l575 0 -2 -637z"/>
<path d="M990 1530 l0 -570 515 0 515 0 0 570 0 570 -515 0 -515 0 0 -570z
m40 546 c0 -3 -4 -8 -10 -11 -5 -3 -10 -1 -10 4 0 6 5 11 10 11 6 0 10 -2 10
-4z m335 -10 c-53 -17 -100 -42 -155 -81 l-45 -33 0 43 c0 28 -7 50 -19 64
l-19 21 139 -1 c127 0 136 -1 99 -13z m494 -15 c-17 -24 -21 -38 -16 -71 l5
-42 -26 24 c-47 43 -93 71 -156 94 l-61 23 138 0 138 1 -22 -29z m141 19 c0
-5 -2 -10 -4 -10 -3 0 -8 5 -11 10 -3 6 -1 10 4 10 6 0 11 -4 11 -10z m-408
-11 c184 -38 342 -201 389 -399 56 -242 -65 -515 -274 -618 -183 -90 -385 -55
-533 93 -215 214 -217 572 -4 785 124 124 267 171 422 139z m-491 -154 l30 7
-37 -52 c-20 -28 -47 -80 -60 -113 l-23 -62 0 122 -1 121 30 -15 c19 -9 41
-12 61 -8z m898 -102 l0 -128 -24 64 c-13 36 -42 90 -63 122 l-39 56 32 -10
c24 -7 39 -6 61 6 16 9 30 16 32 17 1 0 2 -57 1 -127z m1 -548 l0 -136 -30 22
c-25 19 -34 21 -64 12 l-34 -11 43 64 c23 36 51 91 61 124 11 33 20 60 22 60
1 0 2 -61 2 -135z m-916 -39 c14 -25 31 -48 36 -51 22 -13 8 -23 -18 -13 -22
9 -36 8 -60 -5 l-32 -15 0 121 0 122 24 -57 c13 -31 35 -77 50 -102z m759
-137 c-5 -31 -1 -47 16 -70 l22 -29 -138 1 -138 0 60 22 c60 23 140 71 164
101 19 23 20 21 14 -25z m-637 0 c46 -37 104 -67 159 -85 37 -12 28 -13 -99
-13 l-139 -1 19 21 c13 14 19 36 19 65 0 24 1 44 1 44 1 0 19 -14 40 -31z
m794 -84 c0 -8 -7 -15 -16 -15 -14 0 -14 3 -4 15 7 8 14 15 16 15 2 0 4 -7 4
-15z m-975 -5 c3 -5 1 -10 -4 -10 -6 0 -11 5 -11 10 0 6 2 10 4 10 3 0 8 -4
11 -10z"/>
<path d="M1423 2000 c-169 -34 -313 -196 -345 -388 -26 -155 29 -329 137 -435
224 -222 569 -134 686 173 131 344 -143 716 -478 650z m37 -50 c-18 -35 -23
-39 -40 -30 -10 5 -32 10 -49 10 -52 0 -50 -51 6 -133 29 -41 26 -55 -7 -37
-11 6 -35 10 -53 8 -31 -3 -32 -4 -30 -52 l1 -49 -47 47 c-27 27 -56 46 -69
46 -25 0 -28 9 -9 34 13 17 14 17 30 -7 36 -56 107 -37 107 28 0 32 -21 65
-41 65 -20 0 -7 19 34 46 41 27 135 62 170 63 16 1 16 -2 -3 -39z m190 8 c50
-21 110 -59 110 -70 0 -4 -9 -9 -19 -13 -22 -7 -46 -58 -38 -79 4 -10 -6 -17
-34 -24 -40 -10 -50 -3 -25 18 8 6 22 31 31 55 13 33 14 47 6 64 -13 23 -50
28 -81 11 -15 -8 -21 -5 -34 22 -9 17 -16 35 -16 40 0 11 43 1 100 -24z m-100
-24 c17 -34 26 -44 39 -38 97 42 105 -19 17 -124 -51 -62 -45 -84 12 -42 15
11 42 23 60 26 31 6 32 5 32 -24 0 -17 -9 -55 -20 -83 -12 -28 -19 -54 -16
-56 11 -11 47 11 65 41 32 51 68 86 89 86 28 0 34 -24 17 -73 -20 -56 -21 -53
25 -82 25 -16 40 -33 40 -45 0 -12 -16 -30 -40 -46 -46 -30 -46 -31 -24 -78
40 -83 -22 -90 -103 -11 -76 73 -88 74 -53 5 11 -22 20 -51 20 -65 0 -32 -29
-34 -83 -5 -46 25 -47 25 -47 -3 0 -13 15 -38 36 -58 42 -40 68 -85 60 -105
-7 -19 -51 -18 -81 2 -25 16 -25 16 -45 -31 -24 -56 -46 -57 -75 -2 -22 41
-30 44 -71 22 -65 -34 -102 -3 -67 55 9 16 21 30 25 30 11 0 61 90 54 97 -3 4
-22 -1 -41 -10 -20 -9 -47 -17 -60 -17 -31 0 -33 29 -9 90 30 75 -5 67 -66
-15 -32 -43 -47 -55 -63 -53 -29 4 -34 55 -11 99 16 32 16 34 -5 49 -12 8 -34
25 -49 37 l-27 21 20 22 c11 13 35 29 53 37 36 15 40 28 16 54 -9 10 -18 36
-21 58 -5 39 -4 41 20 41 15 0 31 -9 41 -25 18 -27 116 -108 123 -101 2 2 -5
22 -16 45 -24 46 -27 89 -8 97 15 6 51 -8 85 -32 21 -16 22 -16 22 13 0 16
-15 53 -35 83 -53 82 -45 113 21 85 44 -18 54 -19 54 -2 0 21 39 77 54 77 8 0
24 -21 36 -46z m-280 -84 c11 -11 20 -25 20 -32 0 -18 -31 -48 -50 -48 -38 0
-54 54 -24 84 20 21 30 20 54 -4z m520 -4 c28 -35 -11 -93 -47 -70 -36 22 -23
84 17 84 10 0 23 -7 30 -14z m63 -68 c38 -66 80 -218 60 -218 -4 0 -20 10 -35
23 -26 21 -27 24 -16 63 32 117 -47 129 -123 18 -36 -53 -47 -52 -25 1 9 21
16 50 16 66 0 26 3 29 24 23 27 -6 66 24 66 51 0 23 6 18 33 -27z m-693 -153
c8 -10 1 -18 -30 -34 -48 -25 -49 -20 -23 73 l17 61 13 -44 c7 -24 17 -49 23
-56z m-6 -184 c-4 -9 -12 -35 -19 -59 l-11 -44 -12 39 c-6 21 -14 55 -18 76
l-6 38 36 -18 c26 -12 35 -21 30 -32z m746 -40 l-13 -56 -19 44 -19 45 28 22
c35 28 39 17 23 -55z m-624 -51 c-8 -40 -14 -50 -30 -50 -23 0 -56 -27 -56
-47 0 -20 -18 -7 -34 26 -14 27 -14 27 18 23 34 -4 35 -3 89 73 10 14 19 25
21 25 1 0 -2 -22 -8 -50z m568 -38 l26 5 -23 -39 -22 -40 -11 27 c-13 32 -31
45 -61 45 -13 0 -23 6 -23 14 0 8 -3 22 -6 31 -4 11 9 6 44 -16 35 -21 59 -30
76 -27z m-181 -23 c31 -10 37 -17 37 -41 0 -28 30 -68 52 -68 43 0 -107 -89
-176 -105 -25 -5 -28 -4 -21 12 4 10 10 26 12 36 4 12 11 16 22 11 34 -14 51
-16 76 -10 21 5 25 12 25 44 0 32 -7 45 -45 82 -44 43 -58 67 -32 56 6 -2 29
-10 50 -17z m-273 7 c0 -3 -18 -26 -40 -51 -30 -35 -40 -55 -40 -81 0 -39 -2
-40 -35 -18 -26 17 -33 34 -13 34 23 0 48 34 48 64 0 27 5 34 33 43 40 13 47
14 47 9z m-119 -16 c26 -15 26 -66 -1 -80 -14 -8 -26 -8 -40 0 -26 14 -27 65
-2 79 21 13 20 13 43 1z m517 -2 c28 -28 3 -84 -34 -76 -43 8 -44 88 -1 88 13
0 28 -5 35 -12z m-325 -173 c20 -41 16 -42 -62 -19 -57 17 -58 22 -8 40 49 18
52 17 70 -21z"/>
<path d="M1488 1722 c-9 -119 -47 -161 -155 -170 -81 -6 -85 -27 -8 -35 107
-11 152 -60 163 -174 4 -38 12 -68 17 -68 6 0 13 30 17 66 3 37 13 80 22 97
22 42 76 72 141 79 37 4 55 10 55 19 0 10 -15 14 -52 14 -107 0 -157 52 -166
171 -6 93 -28 94 -34 1z m38 -99 l13 -33 -33 0 -34 0 17 45 c9 25 18 40 20 33
2 -7 10 -28 17 -45z m-80 -88 c-1 -19 -2 -35 -2 -35 -1 0 -19 7 -40 16 l-39
17 32 11 c17 6 35 14 39 19 11 10 11 10 10 -28z m159 11 l40 -14 -30 -12 c-42
-16 -75 -48 -94 -94 l-17 -39 -16 42 -16 41 28 0 c37 0 60 24 60 61 0 16 1 29
3 29 1 0 20 -7 42 -14z"/>
</g>
</svg>
